<?xml version="1.0" encoding="UTF-8"?>
<svg width="227px" height="63px" viewBox="0 0 227 63" version="1.1" xmlns="http://www.w3.org/2000/svg" xmlns:xlink="http://www.w3.org/1999/xlink">
    <title>编组 3</title>
    <g id="页面-1" stroke="none" stroke-width="1" fill="none" fill-rule="evenodd">
        <g id="Ant-Design-X---白" transform="translate(-871.5, -449.5)">
            <g id="编组-3" transform="translate(872, 450)">
                <g id="编组-4" transform="translate(0, 32)">
                    <rect id="矩形" stroke="#F0F0F0" fill="#FFFFFF" fill-rule="nonzero" x="0" y="0" width="77" height="24" rx="4"></rect>
                    <g id="编组" opacity="0.88" transform="translate(26, 9)" fill="#000000" fill-opacity="0.88" fill-rule="nonzero">
                        <rect id="矩形" x="0" y="0" width="1" height="6"></rect>
                        <rect id="矩形备份" x="3" y="0" width="1" height="6"></rect>
                        <rect id="矩形备份-2" x="6" y="0" width="1" height="6"></rect>
                        <rect id="矩形备份-3" x="9" y="0" width="1" height="6"></rect>
                        <rect id="矩形备份-4" x="12" y="0" width="1" height="6"></rect>
                        <rect id="矩形备份-5" x="15" y="0" width="1" height="6"></rect>
                        <rect id="矩形备份-6" x="18" y="0" width="1" height="6"></rect>
                        <rect id="矩形备份-7" x="21" y="0" width="1" height="6"></rect>
                        <rect id="矩形备份-8" x="24" y="0" width="1" height="6"></rect>
                        <rect id="矩形备份-9" x="27" y="0" width="1" height="6"></rect>
                        <rect id="矩形备份-10" x="30" y="0" width="1" height="6"></rect>
                        <rect id="矩形备份-10备份" x="36" y="0" width="1" height="6"></rect>
                        <rect id="矩形备份-11" x="33" y="0" width="1" height="6"></rect>
                        <rect id="矩形备份-11备份-8" x="42" y="0" width="1" height="6"></rect>
                        <rect id="矩形备份-11备份-3" x="39" y="0" width="1" height="6"></rect>
                    </g>
                    <g id="bulb-outlined" transform="translate(8, 5)" fill="#1677FF">
                        <rect id="矩形" opacity="0" x="0" y="0" width="14" height="14"></rect>
                        <path d="M8.640625,12.140625 L5.359375,12.140625 C5.29921875,12.140625 5.25,12.1898437 5.25,12.25 L5.25,12.6875 C5.25,12.9294922 5.44550781,13.125 5.6875,13.125 L8.3125,13.125 C8.55449219,13.125 8.75,12.9294922 8.75,12.6875 L8.75,12.25 C8.75,12.1898437 8.70078125,12.140625 8.640625,12.140625 Z M7,0.875 C4.52402344,0.875 2.515625,2.88339844 2.515625,5.359375 C2.515625,7.01914062 3.41796875,8.46835938 4.7578125,9.24355469 L4.7578125,10.828125 C4.7578125,11.0701172 4.95332031,11.265625 5.1953125,11.265625 L8.8046875,11.265625 C9.04667969,11.265625 9.2421875,11.0701172 9.2421875,10.828125 L9.2421875,9.24355469 C10.5820312,8.46835938 11.484375,7.01914063 11.484375,5.359375 C11.484375,2.88339844 9.47597656,0.875 7,0.875 Z M8.74863281,8.39179688 L8.2578125,8.67617188 L8.2578125,10.28125 L5.7421875,10.28125 L5.7421875,8.67617188 L5.25136719,8.39179688 C4.17539062,7.76972656 3.5,6.62402344 3.5,5.359375 C3.5,3.42617187 5.06679688,1.859375 7,1.859375 C8.93320312,1.859375 10.5,3.42617187 10.5,5.359375 C10.5,6.62402344 9.82460938,7.76972656 8.74863281,8.39179688 Z" id="形状"></path>
                    </g>
                </g>
                <g id="编组-4备份-4" transform="translate(149, 32)">
                    <rect id="矩形" stroke="#F0F0F0" fill="#FFFFFF" fill-rule="nonzero" x="0" y="0" width="77" height="24" rx="4"></rect>
                    <g id="编组" opacity="0.88" transform="translate(26, 9)" fill="#000000" fill-opacity="0.88" fill-rule="nonzero">
                        <rect id="矩形" x="0" y="0" width="1" height="6"></rect>
                        <rect id="矩形备份" x="3" y="0" width="1" height="6"></rect>
                        <rect id="矩形备份-2" x="6" y="0" width="1" height="6"></rect>
                        <rect id="矩形备份-3" x="9" y="0" width="1" height="6"></rect>
                        <rect id="矩形备份-4" x="12" y="0" width="1" height="6"></rect>
                        <rect id="矩形备份-5" x="15" y="0" width="1" height="6"></rect>
                        <rect id="矩形备份-6" x="18" y="0" width="1" height="6"></rect>
                        <rect id="矩形备份-7" x="21" y="0" width="1" height="6"></rect>
                        <rect id="矩形备份-8" x="24" y="0" width="1" height="6"></rect>
                        <rect id="矩形备份-9" x="27" y="0" width="1" height="6"></rect>
                        <rect id="矩形备份-10" x="30" y="0" width="1" height="6"></rect>
                        <rect id="矩形备份-10备份" x="36" y="0" width="1" height="6"></rect>
                        <rect id="矩形备份-11" x="33" y="0" width="1" height="6"></rect>
                        <rect id="矩形备份-11备份-8" x="42" y="0" width="1" height="6"></rect>
                        <rect id="矩形备份-11备份-3" x="39" y="0" width="1" height="6"></rect>
                    </g>
                    <g id="thunderbolt-outlined" transform="translate(8, 5)" fill="#1677FF">
                        <rect id="矩形" opacity="0" x="0" y="0" width="14" height="14"></rect>
                        <path d="M11.59375,4.91230469 L8.58183594,4.91230469 L11.2902344,1.49023438 C11.3462891,1.41777344 11.2957031,1.3125 11.2041016,1.3125 L5.9609375,1.3125 C5.92265625,1.3125 5.88574219,1.33300781 5.86660156,1.3671875 L2.32421875,7.48535156 C2.28183594,7.5578125 2.33378906,7.64941406 2.41855469,7.64941406 L4.80292969,7.64941406 L3.58066406,12.5384766 C3.5546875,12.6451172 3.68320312,12.7203125 3.7625,12.64375 L11.6689453,5.09960937 C11.7400391,5.03261719 11.6921875,4.91230469 11.59375,4.91230469 Z M5.17070313,10.0146484 L5.99511719,6.71972656 L3.84316406,6.71972656 L6.43535156,2.24355469 L9.50605469,2.24355469 L6.65820313,5.84335937 L9.54296875,5.84335937 L5.17070313,10.0146484 Z" id="形状"></path>
                    </g>
                </g>
                <g id="编组-4备份" transform="translate(85, 32)">
                    <rect id="矩形" stroke="#F0F0F0" fill="#FFFFFF" fill-rule="nonzero" x="0" y="0" width="56" height="24" rx="4"></rect>
                    <g id="编组" opacity="0.88" transform="translate(26, 9)" fill="#000000" fill-opacity="0.88" fill-rule="nonzero">
                        <rect id="矩形" x="0" y="0" width="1" height="6"></rect>
                        <rect id="矩形备份" x="3" y="0" width="1" height="6"></rect>
                        <rect id="矩形备份-2" x="6" y="0" width="1" height="6"></rect>
                        <rect id="矩形备份-3" x="9" y="0" width="1" height="6"></rect>
                        <rect id="矩形备份-4" x="12" y="0" width="1" height="6"></rect>
                        <rect id="矩形备份-5" x="15" y="0" width="1" height="6"></rect>
                        <rect id="矩形备份-6" x="18" y="0" width="1" height="6"></rect>
                        <rect id="矩形备份-7" x="21" y="0" width="1" height="6"></rect>
                    </g>
                    <g id="fire-outlined" transform="translate(8, 5)" fill="#1677FF">
                        <rect id="矩形" opacity="0" x="0" y="0" width="14" height="14"></rect>
                        <path d="M11.4037109,6.41484375 C11.1371094,5.81601563 10.7556641,5.28554688 10.2703125,4.83984375 L9.87246094,4.47480469 C9.81367188,4.42285156 9.72070312,4.44609375 9.69472656,4.51992188 L9.51699219,5.02988281 C9.40625,5.34980469 9.20253906,5.6765625 8.9140625,5.99785156 C8.89492188,6.01835938 8.87304688,6.02382813 8.85800781,6.02519531 C8.84296875,6.0265625 8.81972656,6.02382813 8.79921875,6.0046875 C8.78007813,5.98828125 8.77050781,5.96367188 8.771875,5.9390625 C8.82246094,5.11601563 8.57636719,4.18769531 8.03769531,3.17734375 C7.59199219,2.33789063 6.97265625,1.68300781 6.19882812,1.22636719 L5.63417969,0.894140625 C5.56035156,0.850390625 5.46601562,0.9078125 5.47011719,0.993945313 L5.50019531,1.65019531 C5.52070312,2.09863281 5.46875,2.49511719 5.34570312,2.82460938 C5.1953125,3.22792969 4.97929687,3.60253906 4.703125,3.93886719 C4.50898437,4.17402344 4.29160156,4.3859375 4.05371094,4.56914063 C3.478125,5.01074219 3.00371094,5.58632813 2.68242187,6.23027344 C2.35839844,6.88105469 2.1875,7.60976563 2.1875,8.33984375 C2.1875,8.98515625 2.31464844,9.60996094 2.56621094,10.1992188 C2.80957031,10.7666016 3.15683594,11.2779297 3.5984375,11.7154297 C4.04140625,12.1529297 4.55546875,12.4974609 5.12832031,12.7367188 C5.72167969,12.9855469 6.35058594,13.1113281 7,13.1113281 C7.64941406,13.1113281 8.27832031,12.9855469 8.87167969,12.7380859 C9.44453125,12.4988281 9.95996094,12.1556641 10.4015625,11.7167969 C10.8445312,11.2792969 11.1917969,10.7679688 11.4337891,10.2005859 C11.6853516,9.61132813 11.8125,8.98652344 11.8125,8.34121094 C11.8125,7.67402344 11.6757812,7.02597656 11.4037109,6.41484375 Z M9.74804688,11.0537109 C9.01386719,11.7810547 8.0390625,12.1802734 7,12.1802734 C5.9609375,12.1802734 4.98613281,11.7810547 4.25195312,11.0537109 C3.52050781,10.3277344 3.1171875,9.36523438 3.1171875,8.34121094 C3.1171875,7.74648438 3.25117188,7.17636719 3.51503906,6.64589844 C3.77207031,6.12773438 4.15488281,5.66425781 4.61972656,5.30742188 C4.91367188,5.08320313 5.18300781,4.82207031 5.42089844,4.53085938 C5.76269531,4.11386719 6.03066406,3.64902344 6.21660156,3.15 C6.29042969,2.95175781 6.34648438,2.73984375 6.38203125,2.51425781 C6.71152344,2.81777344 6.98769531,3.18417969 7.21875,3.61347656 C7.67539063,4.46933594 7.8859375,5.23085938 7.84492188,5.87890625 C7.82578125,6.190625 7.94746094,6.48730469 8.17851562,6.69648438 C8.37949219,6.87695313 8.63925781,6.96855469 8.90859375,6.95351563 C9.17792969,6.93984375 9.42539062,6.82089844 9.60585938,6.61992188 C9.78769531,6.41621094 9.94492188,6.20839844 10.0761719,5.99648438 C10.2675781,6.24121094 10.4275391,6.5078125 10.5546875,6.79492188 C10.7720703,7.284375 10.8828125,7.80527344 10.8828125,8.34121094 C10.8828125,9.36523438 10.4794922,10.3291016 9.74804688,11.0537109 Z" id="形状"></path>
                    </g>
                </g>
                <g id="编组-4备份-2">
                    <rect id="矩形" stroke="#F0F0F0" fill="#FFFFFF" fill-rule="nonzero" x="0" y="0" width="95" height="24" rx="4"></rect>
                    <g id="编组" opacity="0.88" transform="translate(26, 9)" fill="#000000" fill-opacity="0.88" fill-rule="nonzero">
                        <rect id="矩形" x="0" y="0" width="1" height="6"></rect>
                        <rect id="矩形备份" x="3" y="0" width="1" height="6"></rect>
                        <rect id="矩形备份-2" x="6" y="0" width="1" height="6"></rect>
                        <rect id="矩形备份-3" x="9" y="0" width="1" height="6"></rect>
                        <rect id="矩形备份-4" x="12" y="0" width="1" height="6"></rect>
                        <rect id="矩形备份-5" x="15" y="0" width="1" height="6"></rect>
                        <rect id="矩形备份-6" x="18" y="0" width="1" height="6"></rect>
                        <rect id="矩形备份-7" x="21" y="0" width="1" height="6"></rect>
                        <rect id="矩形备份-8" x="24" y="0" width="1" height="6"></rect>
                        <rect id="矩形备份-9" x="27" y="0" width="1" height="6"></rect>
                        <rect id="矩形备份-10" x="30" y="0" width="1" height="6"></rect>
                        <rect id="矩形备份-10备份-7" x="51" y="0" width="1" height="6"></rect>
                        <rect id="矩形备份-10备份" x="36" y="0" width="1" height="6"></rect>
                        <rect id="矩形备份-10备份-8" x="57" y="0" width="1" height="6"></rect>
                        <rect id="矩形备份-10备份-6" x="45" y="0" width="1" height="6"></rect>
                        <rect id="矩形备份-11" x="33" y="0" width="1" height="6"></rect>
                        <rect id="矩形备份-11备份-10" x="54" y="0" width="1" height="6"></rect>
                        <rect id="矩形备份-11备份-8" x="42" y="0" width="1" height="6"></rect>
                        <rect id="矩形备份-11备份-3" x="39" y="0" width="1" height="6"></rect>
                        <rect id="矩形备份-11备份-12" x="60" y="0" width="1" height="6"></rect>
                        <rect id="矩形备份-11备份-9" x="48" y="0" width="1" height="6"></rect>
                    </g>
                    <g id="smile-outlined" transform="translate(8, 5)" fill="#1677FF">
                        <rect id="矩形" opacity="0" x="0" y="0" width="14" height="14"></rect>
                        <path d="M3.9375,5.75585938 C3.9375,6.11829624 4.23131313,6.41210937 4.59375,6.41210937 C4.95618687,6.41210937 5.25,6.11829624 5.25,5.75585937 C5.25,5.39342251 4.95618687,5.09960937 4.59375,5.09960937 C4.23131313,5.09960937 3.9375,5.39342251 3.9375,5.75585937 L3.9375,5.75585938 Z M8.75,5.75585938 C8.75,6.11829624 9.04381313,6.41210937 9.40625,6.41210937 C9.76868687,6.41210937 10.0625,6.11829624 10.0625,5.75585937 C10.0625,5.39342251 9.76868687,5.09960937 9.40625,5.09960937 C9.04381313,5.09960937 8.75,5.39342251 8.75,5.75585937 L8.75,5.75585938 Z M7,0.875 C3.61757813,0.875 0.875,3.61757813 0.875,7 C0.875,10.3824219 3.61757813,13.125 7,13.125 C10.3824219,13.125 13.125,10.3824219 13.125,7 C13.125,3.61757813 10.3824219,0.875 7,0.875 Z M10.5957031,10.5957031 C10.128125,11.0632813 9.58398438,11.4296875 8.97832031,11.6867187 C8.35351562,11.9519531 7.68769531,12.0859375 7,12.0859375 C6.31230469,12.0859375 5.64648438,11.9519531 5.0203125,11.6867187 C4.41464844,11.4310547 3.87050781,11.0632812 3.40292969,10.5957031 C2.93535156,10.128125 2.56894531,9.58398438 2.31191406,8.97832031 C2.04804688,8.35351562 1.9140625,7.68769531 1.9140625,7 C1.9140625,6.31230469 2.04804688,5.64648438 2.31328125,5.0203125 C2.56894531,4.41464844 2.93671875,3.87050781 3.40429688,3.40292969 C3.871875,2.93535156 4.41601562,2.56894531 5.02167969,2.31191406 C5.64648438,2.04804688 6.31230469,1.9140625 7,1.9140625 C7.68769531,1.9140625 8.35351562,2.04804688 8.9796875,2.31328125 C9.58535156,2.56894531 10.1294922,2.93671875 10.5970703,3.40429688 C11.0646484,3.871875 11.4310547,4.41601562 11.6880859,5.02167969 C11.9519531,5.64648438 12.0859375,6.31230469 12.0859375,7 C12.0859375,7.68769531 11.9519531,8.35351562 11.6867187,8.9796875 C11.4310547,9.58535156 11.0632812,10.1294922 10.5957031,10.5957031 Z M9.078125,7.28710938 L8.42050781,7.28710938 C8.36308594,7.28710938 8.31386719,7.33085938 8.30976563,7.38828125 C8.2578125,8.06503906 7.69042969,8.59960938 7,8.59960938 C6.30957031,8.59960938 5.74082031,8.06503906 5.69023437,7.38828125 C5.68613281,7.33085937 5.63691406,7.28710938 5.57949219,7.28710938 L4.921875,7.28710938 C4.85898437,7.28710938 4.80976562,7.3390625 4.8125,7.40195312 C4.87265625,8.55449219 5.83105469,9.47460938 7,9.47460938 C8.16894531,9.47460938 9.12734375,8.55449219 9.1875,7.40195312 C9.19023438,7.3390625 9.14101563,7.28710938 9.078125,7.28710938 Z" id="形状"></path>
                    </g>
                </g>
                <g id="编组-4备份-3" transform="translate(103, 0)">
                    <rect id="矩形" stroke="#F0F0F0" fill="#FFFFFF" fill-rule="nonzero" x="0" y="0" width="112" height="24" rx="4"></rect>
                    <g id="编组" opacity="0.88" transform="translate(26, 9)" fill="#000000" fill-opacity="0.88" fill-rule="nonzero">
                        <rect id="矩形" x="0" y="0" width="1" height="6"></rect>
                        <rect id="矩形备份" x="3" y="0" width="1" height="6"></rect>
                        <rect id="矩形备份-2" x="6" y="0" width="1" height="6"></rect>
                        <rect id="矩形备份-3" x="9" y="0" width="1" height="6"></rect>
                        <rect id="矩形备份-4" x="12" y="0" width="1" height="6"></rect>
                        <rect id="矩形备份-5" x="15" y="0" width="1" height="6"></rect>
                        <rect id="矩形备份-6" x="18" y="0" width="1" height="6"></rect>
                        <rect id="矩形备份-7" x="21" y="0" width="1" height="6"></rect>
                        <rect id="矩形备份-8" x="24" y="0" width="1" height="6"></rect>
                        <rect id="矩形备份-9" x="27" y="0" width="1" height="6"></rect>
                        <rect id="矩形备份-10" x="30" y="0" width="1" height="6"></rect>
                        <rect id="矩形备份-10备份-7" x="51" y="0" width="1" height="6"></rect>
                        <rect id="矩形备份-10备份" x="36" y="0" width="1" height="6"></rect>
                        <rect id="矩形备份-10备份-8" x="57" y="0" width="1" height="6"></rect>
                        <rect id="矩形备份-10备份-13" x="66" y="0" width="1" height="6"></rect>
                        <rect id="矩形备份-10备份-14" x="75" y="0" width="1" height="6"></rect>
                        <rect id="矩形备份-10备份-6" x="45" y="0" width="1" height="6"></rect>
                        <rect id="矩形备份-11" x="33" y="0" width="1" height="6"></rect>
                        <rect id="矩形备份-11备份-10" x="54" y="0" width="1" height="6"></rect>
                        <rect id="矩形备份-11备份-102" x="63" y="0" width="1" height="6"></rect>
                        <rect id="矩形备份-11备份-104" x="72" y="0" width="1" height="6"></rect>
                        <rect id="矩形备份-11备份-8" x="42" y="0" width="1" height="6"></rect>
                        <rect id="矩形备份-11备份-3" x="39" y="0" width="1" height="6"></rect>
                        <rect id="矩形备份-11备份-12" x="60" y="0" width="1" height="6"></rect>
                        <rect id="矩形备份-11备份-103" x="69" y="0" width="1" height="6"></rect>
                        <rect id="矩形备份-11备份-9" x="48" y="0" width="1" height="6"></rect>
                    </g>
                    <g id="SoundMutedOutlined" transform="translate(8, 5)" fill="#1677FF">
                        <rect id="矩形" opacity="0" x="0" y="0" width="14" height="14"></rect>
                        <path d="M10.5535254,1.57226562 C10.4733672,1.57226562 10.3911445,1.59474219 10.3153613,1.64427539 L5.46875,4.81203516 L3.2265625,4.81203516 C3.10574414,4.81203516 3.0078125,4.90999414 3.0078125,5.03082617 L3.0078125,8.96916016 C3.0078125,9.08999219 3.10574414,9.18795117 3.2265625,9.18795117 L5.46875,9.18795117 L10.3153613,12.3557246 C10.3911309,12.4052305 10.4733809,12.4277344 10.5535254,12.4277344 C10.7811758,12.4277344 10.9921875,12.2465684 10.9921875,11.9894141 L10.9921875,2.01058594 C10.9921875,1.75344531 10.7811484,1.57226562 10.5535254,1.57226562 M10.0078125,3.02144336 L10.0078125,10.978543 L6.00723047,8.36376953 L5.76184766,8.20339844 L3.9921875,8.20339844 L3.9921875,5.79660156 L5.76184766,5.79660156 L6.00723047,5.63623047 L10.0078125,3.02144336 Z" id="形状"></path>
                    </g>
                </g>
                <g id="close" transform="translate(60.5, 50.5)" fill="#000000" fill-rule="nonzero" opacity="0">
                    <rect id="矩形" x="0" y="0" width="12" height="12"></rect>
                </g>
            </g>
        </g>
    </g>
</svg>