<?xml version="1.0" encoding="UTF-8"?>
<svg width="259px" height="123px" viewBox="0 0 259 123" version="1.1" xmlns="http://www.w3.org/2000/svg" xmlns:xlink="http://www.w3.org/1999/xlink">
    <title>编组 4备份 10</title>
    <g id="页面-1" stroke="none" stroke-width="1" fill="none" fill-rule="evenodd">
        <g id="Ant-Design-X---黑" transform="translate(-488, -1091)">
            <g id="编组备份-91" transform="translate(448, 1024)">
                <g id="编组-4备份-10" transform="translate(41, 68)">
                    <rect id="矩形" stroke="#313131" x="0" y="0" width="257" height="121" rx="8"></rect>
                    <g id="icon/新建_hl" transform="translate(231, 95)" fill="#1677FF" fill-opacity="0.85" fill-rule="nonzero">
                        <rect id="矩形" opacity="0" x="0" y="0" width="20" height="20"></rect>
                        <path d="M10,0 C15.5228475,0 20,4.4771525 20,10 C20,15.5228475 15.5228475,20 10,20 C4.4771525,20 0,15.5228475 0,10 C0,4.4771525 4.4771525,0 10,0 Z M9.97147155,4.21033757 L9.93653616,4.21041753 L9.89905141,4.21204415 L9.85748637,4.21567696 L9.8218136,4.22040132 L9.79540681,4.22485311 L9.76174074,4.23176788 L9.73757688,4.23758324 L9.70611452,4.24631786 L9.66938937,4.25801778 L9.63934998,4.26901324 L9.60823915,4.28170749 L9.58666424,4.29133502 C9.57493359,4.2967652 9.56329802,4.30246797 9.55177881,4.30849778 L9.5403788,4.31445184 C9.52149926,4.32459169 9.50291218,4.33547125 9.48466025,4.34709052 L9.46229694,4.36181335 L9.44224273,4.37587513 C9.42264549,4.39002923 9.40350031,4.40509028 9.3848531,4.42110411 L9.35742784,4.44557331 C9.34971063,4.45276116 9.34209123,4.46011365 9.33457412,4.46763076 L5.91643099,7.88577389 C5.57319675,8.22900813 5.57319675,8.78550079 5.91643099,9.12873503 L5.93406529,9.14589181 C6.27846812,9.47187067 6.82197541,9.46615174 7.15939213,9.12873503 L9.07707171,7.2109668 L9.07714844,14.9108887 C9.07714844,15.3962952 9.47064817,15.7897949 9.95605469,15.7897949 C10.4414612,15.7897949 10.8349609,15.3962952 10.8349609,14.9108887 L10.8348842,7.2109668 L12.7527172,9.12873503 C13.0959515,9.47196927 13.6524441,9.47196927 13.9956784,9.12873503 C14.3389126,8.78550079 14.3389126,8.22900813 13.9956784,7.88577389 L10.5775353,4.46763076 L10.5639291,4.45431052 L10.5410907,4.43319191 L10.5272443,4.42105827 C10.4953742,4.39374971 10.4620126,4.3690938 10.4274346,4.34717301 L10.4163286,4.34013902 L10.3862222,4.3224213 L10.3603423,4.30844334 C10.3458815,4.30094973 10.3312562,4.29388482 10.3165024,4.28727887 L10.291849,4.2766323 L10.271781,4.26861791 C10.2522345,4.26109154 10.2323511,4.25424353 10.2121449,4.2481603 L10.1971794,4.243702 L10.1648164,4.23522614 L10.1262716,4.22668508 L10.0900049,4.22035431 L10.0676504,4.21727622 L10.0299435,4.2132702 L10.0058562,4.21159393 L9.97147155,4.21033757 Z" id="形状结合"></path>
                    </g>
                    <rect id="矩形备份-13备份-14" fill-opacity="0.35" fill="#1677FF" fill-rule="nonzero" x="68" y="64" width="121" height="8" rx="2"></rect>
                    <rect id="矩形备份-13备份-13" fill-opacity="0.85" fill="#1677FF" fill-rule="nonzero" x="104" y="46" width="50" height="12" rx="2"></rect>
                    <rect id="矩形" fill="#313131" x="0" y="88" width="257" height="1"></rect>
                    <g id="cloud-upload-outlined" transform="translate(117, 16)" fill="#1677FF" fill-opacity="0.85">
                        <rect id="矩形" opacity="0" x="0" y="0" width="24" height="24"></rect>
                        <path d="M12.1476563,10.7578125 C12.0726563,10.6617188 11.9273438,10.6617188 11.8523438,10.7578125 L9.22734375,14.0789063 C9.13125,14.2007813 9.21796875,14.38125 9.375,14.38125 L11.1070313,14.38125 L11.1070313,20.0625 C11.1070313,20.165625 11.1914063,20.25 11.2945313,20.25 L12.7007813,20.25 C12.8039063,20.25 12.8882813,20.165625 12.8882813,20.0625 L12.8882813,14.3835938 L14.625,14.3835938 C14.7820313,14.3835938 14.86875,14.203125 14.7726563,14.08125 L12.1476563,10.7578125 Z" id="路径"></path>
                        <path d="M19.0171875,8.59453125 C17.94375,5.76328125 15.2085938,3.75 12.0046875,3.75 C8.80078125,3.75 6.065625,5.7609375 4.9921875,8.5921875 C2.98359375,9.11953125 1.5,10.95 1.5,13.125 C1.5,15.7148437 3.59765625,17.8125 6.18515625,17.8125 L7.125,17.8125 C7.228125,17.8125 7.3125,17.728125 7.3125,17.625 L7.3125,16.21875 C7.3125,16.115625 7.228125,16.03125 7.125,16.03125 L6.18515625,16.03125 C5.3953125,16.03125 4.65234375,15.7171875 4.09921875,15.1476563 C3.5484375,14.5804688 3.25546875,13.8164062 3.28125,13.0242187 C3.30234375,12.4054688 3.51328125,11.8242188 3.8953125,11.334375 C4.28671875,10.8351562 4.83515625,10.471875 5.44453125,10.3101563 L6.3328125,10.078125 L6.65859375,9.2203125 C6.86015625,8.6859375 7.14140625,8.18671875 7.4953125,7.734375 C7.84453125,7.284375 8.259375,6.89296875 8.7234375,6.56484375 C9.68671875,5.8875 10.8210937,5.52890625 12.0046875,5.52890625 C13.1882812,5.52890625 14.3226562,5.8875 15.2859375,6.56484375 C15.7523438,6.89296875 16.1648438,7.28671875 16.5140625,7.734375 C16.8679688,8.18671875 17.1492188,8.68828125 17.3507812,9.2203125 L17.6742188,10.0757812 L18.5601563,10.3101563 C19.8304687,10.6523437 20.71875,11.8078125 20.71875,13.125 C20.71875,13.9007812 20.4164062,14.6320312 19.8679688,15.1804688 C19.3195312,15.7289062 18.590625,16.03125 17.8148438,16.03125 L16.875,16.03125 C16.771875,16.03125 16.6875,16.115625 16.6875,16.21875 L16.6875,17.625 C16.6875,17.728125 16.771875,17.8125 16.875,17.8125 L17.8148438,17.8125 C20.4023437,17.8125 22.5,15.7148437 22.5,13.125 C22.5,10.9523438 21.0210938,9.12421875 19.0171875,8.59453125 Z" id="路径"></path>
                    </g>
                </g>
            </g>
        </g>
    </g>
</svg>