<?xml version="1.0" encoding="UTF-8"?>
<svg width="206px" height="66px" viewBox="0 0 206 66" version="1.1" xmlns="http://www.w3.org/2000/svg" xmlns:xlink="http://www.w3.org/1999/xlink">
    <title>编组 10</title>
    <defs>
        <rect id="path-1" x="0" y="0" width="166" height="66" rx="8"></rect>
        <rect id="path-3" x="0" y="-1.77635684e-15" width="24" height="24"></rect>
    </defs>
    <g id="页面-1" stroke="none" stroke-width="1" fill="none" fill-rule="evenodd">
        <g id="Ant-Design-X---黑" transform="translate(-151, -523)">
            <g id="编组-10" transform="translate(151, 523)">
                <g id="我的对话备份-9" transform="translate(40, 0)">
                    <mask id="mask-2" fill="white">
                        <use xlink:href="#path-1"></use>
                    </mask>
                    <use id="蒙版" fill="#1F1F1F" xlink:href="#path-1"></use>
                    <rect id="矩形" fill-opacity="0.15" fill="#FFFFFF" fill-rule="nonzero" opacity="0.999255952" mask="url(#mask-2)" x="12" y="12" width="142" height="10" rx="1"></rect>
                    <rect id="矩形备份-13" fill-opacity="0.15" fill="#FFFFFF" fill-rule="nonzero" opacity="0.999255952" mask="url(#mask-2)" x="12" y="28" width="142" height="10" rx="1"></rect>
                    <rect id="矩形备份-13备份" fill-opacity="0.15" fill="#FFFFFF" fill-rule="nonzero" opacity="0.999255952" mask="url(#mask-2)" x="12" y="44" width="51" height="10" rx="1"></rect>
                    <rect id="矩形" fill-opacity="0.88" fill="#FFFFFF" mask="url(#mask-2)" x="67" y="43" width="3" height="12"></rect>
                </g>
                <g id="编组-3备份-5">
                    <g id="redit-circle-filled">
                        <rect id="矩形" fill="#000000" fill-rule="nonzero" opacity="0" x="0" y="0" width="32" height="32"></rect>
                        <path d="M16,0 C7.16428571,0 0,7.16428571 0,16 C0,24.8357143 7.16428571,32 16,32 C24.8357143,32 32,24.8357143 32,16 C32,7.16428571 24.8357143,0 16,0 Z" id="形状" fill="#1677FF"></path>
                    </g>
                    <g id="03-icon/AI" transform="translate(4, 4)">
                        <rect id="Rectangle" x="0" y="-1.77635684e-15" width="24" height="24"></rect>
                        <mask id="mask-4" fill="white">
                            <use xlink:href="#path-3"></use>
                        </mask>
                        <g id="蒙版"></g>
                        <path d="M10.1847881,7.56729715 C10.4131195,7.63488284 10.5917089,7.81347223 10.6592946,8.04180361 L11.1668016,9.75636457 C11.6400086,11.3550461 12.8905829,12.6053502 14.4893667,13.0782116 L16.1894629,13.5810374 C16.5617339,13.6911415 16.7742622,14.0821837 16.6641581,14.4544547 C16.596884,14.6819143 16.4194303,14.860104 16.1922512,14.928319 L14.4698553,15.4455029 C12.8820119,15.9222848 11.6410223,17.1666259 11.1685246,18.7557494 L10.6590495,20.469237 C10.5484086,20.8413488 10.1570602,21.0533129 9.78494839,20.9426721 C9.55728624,20.8749808 9.3792046,20.6968992 9.3115133,20.469237 L8.80203816,18.7557494 C8.32954049,17.1666259 7.08855085,15.9222848 5.50070743,15.4455029 L3.77831153,14.928319 C3.40649945,14.816675 3.19559157,14.4247564 3.3072356,14.0529443 C3.37545069,13.8257652 3.55364036,13.6483116 3.78109989,13.5810374 L5.48119603,13.0782116 C7.07997984,12.6053502 8.33055415,11.3550461 8.80376112,9.75636457 L9.31126818,8.04180361 C9.42145271,7.6695564 9.8125409,7.45711262 10.1847881,7.56729715 Z M17.0833256,3.0693539 C17.1871126,3.10007467 17.2682896,3.18125166 17.2990103,3.28503866 L17.5001575,3.96459403 C17.7886725,4.9393125 18.5511495,5.70162468 19.5259303,5.98992895 L20.1975413,6.18856677 C20.3667554,6.23861407 20.4633592,6.41636056 20.4133119,6.58557467 C20.3827327,6.68896537 20.302072,6.76996067 20.1988088,6.80096753 L19.5140342,7.00658483 C18.5459237,7.2972794 17.7892905,8.05595597 17.501208,9.02484689 L17.2988989,9.70526118 C17.2486076,9.87440292 17.070722,9.97075025 16.9015802,9.92045895 C16.7980974,9.88969018 16.7171512,9.80874398 16.6863825,9.70526118 L16.4840734,9.02484689 C16.1959908,8.05595597 15.4393577,7.2972794 14.4712472,7.00658483 L13.7864726,6.80096753 C13.6174671,6.75022024 13.5215999,6.57207541 13.5723472,6.40306991 C13.603354,6.29980667 13.6843493,6.21914593 13.78774,6.18856677 L14.4593511,5.98992895 C15.4341319,5.70162468 16.1966089,4.9393125 16.4851238,3.96459403 L16.686271,3.28503866 C16.7363549,3.11583538 16.9141223,3.01927002 17.0833256,3.0693539 Z" id="形状" fill="#FFFFFF" mask="url(#mask-4)"></path>
                    </g>
                </g>
            </g>
        </g>
    </g>
</svg>