<?xml version="1.0" encoding="UTF-8"?>
<svg width="242px" height="97px" viewBox="0 0 242 97" version="1.1" xmlns="http://www.w3.org/2000/svg" xmlns:xlink="http://www.w3.org/1999/xlink">
    <title>编组 11</title>
    <defs>
        <rect id="path-1" x="0" y="0" width="12" height="12"></rect>
        <rect id="path-3" x="0" y="0" width="12" height="12"></rect>
        <rect id="path-5" x="0" y="0" width="12" height="12"></rect>
    </defs>
    <g id="页面-1" stroke="none" stroke-width="1" fill="none" fill-rule="evenodd">
        <g id="Ant-Design-X---白" transform="translate(-861, -759)">
            <g id="编组备份-95" transform="translate(812, 679)">
                <g id="编组-11" transform="translate(49, 80)">
                    <g id="编组-4" transform="translate(0, 45)">
                        <g id="编组-4备份-9" transform="translate(112, 0)">
                            <rect id="矩形" fill="#E6F4FF" fill-rule="nonzero" x="0" y="0" width="114" height="22" rx="8"></rect>
                            <rect id="矩形备份-13备份-2" fill="#BAE0FF" fill-rule="nonzero" x="24" y="6" width="82" height="10" rx="2"></rect>
                            <g id="icon/待办备份" transform="translate(8, 5)">
                                <rect id="Rectangle" x="0" y="0" width="12" height="12"></rect>
                                <mask id="mask-2" fill="white">
                                    <use xlink:href="#path-1"></use>
                                </mask>
                                <g id="蒙版"></g>
                                <path d="M5.09239405,3.78364857 C5.20655974,3.81744142 5.29585444,3.90673611 5.32964728,4.0209018 L5.58340082,4.87818229 C5.8200043,5.67752307 6.44529146,6.30267508 7.24468336,6.53910578 L8.09473143,6.7905187 C8.28086694,6.84557073 8.38713109,7.04109186 8.33207906,7.22722737 C8.29844198,7.34095714 8.20971517,7.43005198 8.09612561,7.46415952 L7.23492766,7.72275147 C6.44100595,7.96114238 5.82051113,8.58331293 5.58426229,9.37787469 L5.32952473,10.2346185 C5.2742043,10.4206744 5.07853011,10.5266565 4.8924742,10.471336 C4.77864312,10.4374904 4.6896023,10.3484496 4.65575665,10.2346185 L4.40101908,9.37787469 C4.16477024,8.58331293 3.54427543,7.96114238 2.75035372,7.72275147 L1.88915576,7.46415952 C1.70324972,7.4083375 1.59779578,7.21237819 1.6536178,7.02647215 C1.68772534,6.91288259 1.77682018,6.82415578 1.89054994,6.7905187 L2.74059801,6.53910578 C3.53998992,6.30267508 4.16527708,5.67752307 4.40188056,4.87818229 L4.65563409,4.0209018 C4.71072635,3.8347782 4.90627045,3.72855631 5.09239405,3.78364857 Z M8.54166278,1.53467695 C8.59355628,1.55003733 8.63414478,1.59062583 8.64950516,1.64251933 L8.75007877,1.98229701 C8.89433625,2.46965625 9.27557474,2.85081234 9.76296515,2.99496448 L10.0987707,3.09428339 C10.1833777,3.11930704 10.2316796,3.20818028 10.206656,3.29278733 C10.1913664,3.34448268 10.151036,3.38498034 10.0994044,3.40048377 L9.75701708,3.50329242 C9.27296186,3.6486397 8.89464527,4.02797799 8.75060401,4.51242344 L8.64944946,4.85263059 C8.62430381,4.93720146 8.53536099,4.98537513 8.45079012,4.96022948 C8.39904872,4.94484509 8.35857562,4.90437199 8.34319123,4.85263059 L8.24203668,4.51242344 C8.09799542,4.02797799 7.71967883,3.6486397 7.23562361,3.50329242 L6.89323631,3.40048377 C6.80873356,3.37511012 6.76079995,3.28603771 6.78617359,3.20153496 C6.80167702,3.14990334 6.84217467,3.10957297 6.89387002,3.09428339 L7.22967554,2.99496448 C7.71706595,2.85081234 8.09830443,2.46965625 8.24256192,1.98229701 L8.34313552,1.64251933 C8.36817746,1.55791769 8.45706114,1.50963501 8.54166278,1.53467695 Z" id="形状" fill="#1677FF" mask="url(#mask-2)"></path>
                            </g>
                        </g>
                        <g id="编组-4备份-15" transform="translate(0, 30)">
                            <rect id="矩形" fill="#E6F4FF" fill-rule="nonzero" x="0" y="0" width="140" height="22" rx="8"></rect>
                            <rect id="矩形备份-13备份-2" fill="#BAE0FF" fill-rule="nonzero" x="24" y="6" width="108" height="10" rx="2"></rect>
                            <g id="icon/待办备份" transform="translate(8, 5)">
                                <rect id="Rectangle" x="0" y="0" width="12" height="12"></rect>
                                <mask id="mask-4" fill="white">
                                    <use xlink:href="#path-3"></use>
                                </mask>
                                <g id="蒙版"></g>
                                <path d="M5.09239405,3.78364857 C5.20655974,3.81744142 5.29585444,3.90673611 5.32964728,4.0209018 L5.58340082,4.87818229 C5.8200043,5.67752307 6.44529146,6.30267508 7.24468336,6.53910578 L8.09473143,6.7905187 C8.28086694,6.84557073 8.38713109,7.04109186 8.33207906,7.22722737 C8.29844198,7.34095714 8.20971517,7.43005198 8.09612561,7.46415952 L7.23492766,7.72275147 C6.44100595,7.96114238 5.82051113,8.58331293 5.58426229,9.37787469 L5.32952473,10.2346185 C5.2742043,10.4206744 5.07853011,10.5266565 4.8924742,10.471336 C4.77864312,10.4374904 4.6896023,10.3484496 4.65575665,10.2346185 L4.40101908,9.37787469 C4.16477024,8.58331293 3.54427543,7.96114238 2.75035372,7.72275147 L1.88915576,7.46415952 C1.70324972,7.4083375 1.59779578,7.21237819 1.6536178,7.02647215 C1.68772534,6.91288259 1.77682018,6.82415578 1.89054994,6.7905187 L2.74059801,6.53910578 C3.53998992,6.30267508 4.16527708,5.67752307 4.40188056,4.87818229 L4.65563409,4.0209018 C4.71072635,3.8347782 4.90627045,3.72855631 5.09239405,3.78364857 Z M8.54166278,1.53467695 C8.59355628,1.55003733 8.63414478,1.59062583 8.64950516,1.64251933 L8.75007877,1.98229701 C8.89433625,2.46965625 9.27557474,2.85081234 9.76296515,2.99496448 L10.0987707,3.09428339 C10.1833777,3.11930704 10.2316796,3.20818028 10.206656,3.29278733 C10.1913664,3.34448268 10.151036,3.38498034 10.0994044,3.40048377 L9.75701708,3.50329242 C9.27296186,3.6486397 8.89464527,4.02797799 8.75060401,4.51242344 L8.64944946,4.85263059 C8.62430381,4.93720146 8.53536099,4.98537513 8.45079012,4.96022948 C8.39904872,4.94484509 8.35857562,4.90437199 8.34319123,4.85263059 L8.24203668,4.51242344 C8.09799542,4.02797799 7.71967883,3.6486397 7.23562361,3.50329242 L6.89323631,3.40048377 C6.80873356,3.37511012 6.76079995,3.28603771 6.78617359,3.20153496 C6.80167702,3.14990334 6.84217467,3.10957297 6.89387002,3.09428339 L7.22967554,2.99496448 C7.71706595,2.85081234 8.09830443,2.46965625 8.24256192,1.98229701 L8.34313552,1.64251933 C8.36817746,1.55791769 8.45706114,1.50963501 8.54166278,1.53467695 Z" id="形状" fill="#1677FF" mask="url(#mask-4)"></path>
                            </g>
                        </g>
                        <g id="编组-4备份-11">
                            <rect id="矩形" fill="#E6F4FF" fill-rule="nonzero" x="0" y="0" width="104" height="22" rx="8"></rect>
                            <rect id="矩形备份-13备份-2" fill="#BAE0FF" fill-rule="nonzero" x="24" y="6" width="72" height="10" rx="2"></rect>
                            <g id="icon/待办" transform="translate(8, 5)">
                                <rect id="Rectangle" x="0" y="0" width="12" height="12"></rect>
                                <mask id="mask-6" fill="white">
                                    <use xlink:href="#path-5"></use>
                                </mask>
                                <g id="蒙版"></g>
                                <path d="M5.09239405,3.78364857 C5.20655974,3.81744142 5.29585444,3.90673611 5.32964728,4.0209018 L5.58340082,4.87818229 C5.8200043,5.67752307 6.44529146,6.30267508 7.24468336,6.53910578 L8.09473143,6.7905187 C8.28086694,6.84557073 8.38713109,7.04109186 8.33207906,7.22722737 C8.29844198,7.34095714 8.20971517,7.43005198 8.09612561,7.46415952 L7.23492766,7.72275147 C6.44100595,7.96114238 5.82051113,8.58331293 5.58426229,9.37787469 L5.32952473,10.2346185 C5.2742043,10.4206744 5.07853011,10.5266565 4.8924742,10.471336 C4.77864312,10.4374904 4.6896023,10.3484496 4.65575665,10.2346185 L4.40101908,9.37787469 C4.16477024,8.58331293 3.54427543,7.96114238 2.75035372,7.72275147 L1.88915576,7.46415952 C1.70324972,7.4083375 1.59779578,7.21237819 1.6536178,7.02647215 C1.68772534,6.91288259 1.77682018,6.82415578 1.89054994,6.7905187 L2.74059801,6.53910578 C3.53998992,6.30267508 4.16527708,5.67752307 4.40188056,4.87818229 L4.65563409,4.0209018 C4.71072635,3.8347782 4.90627045,3.72855631 5.09239405,3.78364857 Z M8.54166278,1.53467695 C8.59355628,1.55003733 8.63414478,1.59062583 8.64950516,1.64251933 L8.75007877,1.98229701 C8.89433625,2.46965625 9.27557474,2.85081234 9.76296515,2.99496448 L10.0987707,3.09428339 C10.1833777,3.11930704 10.2316796,3.20818028 10.206656,3.29278733 C10.1913664,3.34448268 10.151036,3.38498034 10.0994044,3.40048377 L9.75701708,3.50329242 C9.27296186,3.6486397 8.89464527,4.02797799 8.75060401,4.51242344 L8.64944946,4.85263059 C8.62430381,4.93720146 8.53536099,4.98537513 8.45079012,4.96022948 C8.39904872,4.94484509 8.35857562,4.90437199 8.34319123,4.85263059 L8.24203668,4.51242344 C8.09799542,4.02797799 7.71967883,3.6486397 7.23562361,3.50329242 L6.89323631,3.40048377 C6.80873356,3.37511012 6.76079995,3.28603771 6.78617359,3.20153496 C6.80167702,3.14990334 6.84217467,3.10957297 6.89387002,3.09428339 L7.22967554,2.99496448 C7.71706595,2.85081234 8.09830443,2.46965625 8.24256192,1.98229701 L8.34313552,1.64251933 C8.36817746,1.55791769 8.45706114,1.50963501 8.54166278,1.53467695 Z" id="形状" fill="#1677FF" mask="url(#mask-6)"></path>
                            </g>
                        </g>
                    </g>
                    <rect id="矩形" fill="#F5F5F5" fill-rule="nonzero" x="0" y="0" width="242" height="33" rx="8"></rect>
                </g>
            </g>
        </g>
    </g>
</svg>