<?xml version="1.0" encoding="UTF-8"?>
<svg width="259px" height="65px" viewBox="0 0 259 65" version="1.1" xmlns="http://www.w3.org/2000/svg" xmlns:xlink="http://www.w3.org/1999/xlink">
    <title>编组 4备份 10</title>
    <g id="页面-1" stroke="none" stroke-width="1" fill="none" fill-rule="evenodd">
        <g id="Ant-Design-X---白" transform="translate(-124, -1068)">
            <g id="编组备份-88" transform="translate(84, 971)">
                <g id="编组-4备份-10" transform="translate(41, 97)">
                    <rect id="矩形" stroke="#1677FF" stroke-width="2" fill="#FFFFFF" fill-rule="nonzero" x="0" y="32" width="257" height="32" rx="8"></rect>
                    <rect id="矩形备份-13备份-2" fill="#F5F5F5" fill-rule="nonzero" x="0" y="0" width="79.6017699" height="20" rx="4"></rect>
                    <rect id="矩形备份-13备份-3" fill="#F5F5F5" fill-rule="nonzero" x="88.699115" y="0" width="79.6017699" height="20" rx="4"></rect>
                    <rect id="矩形备份-13备份-4" fill="#F5F5F5" fill-rule="nonzero" x="177.39823" y="0" width="79.6017699" height="20" rx="4"></rect>
                    <g id="icon/新建_hl" transform="translate(231, 38)" fill="#1677FF" fill-rule="nonzero">
                        <rect id="矩形" opacity="0" x="0" y="0" width="20" height="20"></rect>
                        <path d="M10,0 C15.5228475,0 20,4.4771525 20,10 C20,15.5228475 15.5228475,20 10,20 C4.4771525,20 0,15.5228475 0,10 C0,4.4771525 4.4771525,0 10,0 Z M9.97147155,4.21033757 L9.93653616,4.21041753 L9.89905141,4.21204415 L9.85748637,4.21567696 L9.8218136,4.22040132 L9.79540681,4.22485311 L9.76174074,4.23176788 L9.73757688,4.23758324 L9.70611452,4.24631786 L9.66938937,4.25801778 L9.63934998,4.26901324 L9.60823915,4.28170749 L9.58666424,4.29133502 C9.57493359,4.2967652 9.56329802,4.30246797 9.55177881,4.30849778 L9.5403788,4.31445184 C9.52149926,4.32459169 9.50291218,4.33547125 9.48466025,4.34709052 L9.46229694,4.36181335 L9.44224273,4.37587513 C9.42264549,4.39002923 9.40350031,4.40509028 9.3848531,4.42110411 L9.35742784,4.44557331 C9.34971063,4.45276116 9.34209123,4.46011365 9.33457412,4.46763076 L5.91643099,7.88577389 C5.57319675,8.22900813 5.57319675,8.78550079 5.91643099,9.12873503 L5.93406529,9.14589181 C6.27846812,9.47187067 6.82197541,9.46615174 7.15939213,9.12873503 L9.07707171,7.2109668 L9.07714844,14.9108887 C9.07714844,15.3962952 9.47064817,15.7897949 9.95605469,15.7897949 C10.4414612,15.7897949 10.8349609,15.3962952 10.8349609,14.9108887 L10.8348842,7.2109668 L12.7527172,9.12873503 C13.0959515,9.47196927 13.6524441,9.47196927 13.9956784,9.12873503 C14.3389126,8.78550079 14.3389126,8.22900813 13.9956784,7.88577389 L10.5775353,4.46763076 L10.5639291,4.45431052 L10.5410907,4.43319191 L10.5272443,4.42105827 C10.4953742,4.39374971 10.4620126,4.3690938 10.4274346,4.34717301 L10.4163286,4.34013902 L10.3862222,4.3224213 L10.3603423,4.30844334 C10.3458815,4.30094973 10.3312562,4.29388482 10.3165024,4.28727887 L10.291849,4.2766323 L10.271781,4.26861791 C10.2522345,4.26109154 10.2323511,4.25424353 10.2121449,4.2481603 L10.1971794,4.243702 L10.1648164,4.23522614 L10.1262716,4.22668508 L10.0900049,4.22035431 L10.0676504,4.21727622 L10.0299435,4.2132702 L10.0058562,4.21159393 L9.97147155,4.21033757 Z" id="形状结合"></path>
                    </g>
                    <rect id="矩形备份-13备份-2" fill="#E6F4FF" fill-rule="nonzero" x="8" y="42" width="121" height="12" rx="2"></rect>
                    <rect id="矩形" fill-opacity="0.88" fill="#000000" x="133" y="42" width="3" height="12"></rect>
                </g>
            </g>
        </g>
    </g>
</svg>