<?xml version="1.0" encoding="UTF-8"?>
<svg width="329px" height="136px" viewBox="0 0 329 136" version="1.1" xmlns="http://www.w3.org/2000/svg" xmlns:xlink="http://www.w3.org/1999/xlink">
    <title>编组 22</title>
    <defs>
        <path d="M7.6916556,-2.07168062e-16 L249.308344,3.10752092e-16 C251.982901,-1.80555915e-16 252.952759,0.278476833 253.930537,0.801398111 C254.908315,1.32431939 255.675681,2.09168511 256.198602,3.06946289 C256.721523,4.04724067 257,5.01709938 257,7.6916556 L257,56.3083444 C257,58.9829006 256.721523,59.9527593 256.198602,60.9305371 C255.675681,61.9083149 254.908315,62.6756806 253.930537,63.1986019 C252.952759,63.7215232 251.982901,64 249.308344,64 L7.6916556,64 C5.01709938,64 4.04724067,63.7215232 3.06946289,63.1986019 C2.09168511,62.6756806 1.32431939,61.9083149 0.801398111,60.9305371 C0.278476833,59.9527593 6.01853049e-17,58.9829006 -1.03584031e-16,56.3083444 L2.07168062e-16,7.6916556 C-1.2037061e-16,5.01709938 0.278476833,4.04724067 0.801398111,3.06946289 C1.32431939,2.09168511 2.09168511,1.32431939 3.06946289,0.801398111 C4.04724067,0.278476833 5.01709938,1.2037061e-16 7.6916556,-2.07168062e-16 Z" id="path-1"></path>
        <filter x="-22.8%" y="-77.3%" width="145.5%" height="282.8%" filterUnits="objectBoundingBox" id="filter-2">
            <feMorphology radius="4" operator="dilate" in="SourceAlpha" result="shadowSpreadOuter1"></feMorphology>
            <feOffset dx="0" dy="9" in="shadowSpreadOuter1" result="shadowOffsetOuter1"></feOffset>
            <feGaussianBlur stdDeviation="14" in="shadowOffsetOuter1" result="shadowBlurOuter1"></feGaussianBlur>
            <feColorMatrix values="0 0 0 0 0   0 0 0 0 0.0392156863   0 0 0 0 0.101960784  0 0 0 0.05 0" type="matrix" in="shadowBlurOuter1" result="shadowMatrixOuter1"></feColorMatrix>
            <feOffset dx="0" dy="6" in="SourceAlpha" result="shadowOffsetOuter2"></feOffset>
            <feGaussianBlur stdDeviation="8" in="shadowOffsetOuter2" result="shadowBlurOuter2"></feGaussianBlur>
            <feColorMatrix values="0 0 0 0 0   0 0 0 0 0.0392156863   0 0 0 0 0.101960784  0 0 0 0.08 0" type="matrix" in="shadowBlurOuter2" result="shadowMatrixOuter2"></feColorMatrix>
            <feMorphology radius="2" operator="erode" in="SourceAlpha" result="shadowSpreadOuter3"></feMorphology>
            <feOffset dx="0" dy="3" in="shadowSpreadOuter3" result="shadowOffsetOuter3"></feOffset>
            <feGaussianBlur stdDeviation="3" in="shadowOffsetOuter3" result="shadowBlurOuter3"></feGaussianBlur>
            <feColorMatrix values="0 0 0 0 0   0 0 0 0 0.0392156863   0 0 0 0 0.101960784  0 0 0 0.12 0" type="matrix" in="shadowBlurOuter3" result="shadowMatrixOuter3"></feColorMatrix>
            <feMerge>
                <feMergeNode in="shadowMatrixOuter1"></feMergeNode>
                <feMergeNode in="shadowMatrixOuter2"></feMergeNode>
                <feMergeNode in="shadowMatrixOuter3"></feMergeNode>
            </feMerge>
        </filter>
        <rect id="path-3" x="0" y="0" width="16" height="16"></rect>
        <rect id="path-5" x="0" y="0" width="16" height="16"></rect>
    </defs>
    <g id="页面-1" stroke="none" stroke-width="1" fill="none" fill-rule="evenodd">
        <g id="Ant-Design-X---白" transform="translate(-817, -1019)">
            <g id="编组备份-99" transform="translate(812, 971)">
                <g id="编组-22" transform="translate(41, 75)">
                    <g id="编组-4备份-10" transform="translate(0, 72)">
                        <rect id="矩形" stroke="#1677FF" stroke-width="2" fill="#FFFFFF" fill-rule="nonzero" x="0" y="0" width="257" height="32" rx="8"></rect>
                        <g id="icon/新建_hl" transform="translate(231, 6)" fill="#1677FF" fill-rule="nonzero">
                            <rect id="矩形" opacity="0" x="0" y="0" width="20" height="20"></rect>
                            <path d="M10,0 C15.5228475,0 20,4.4771525 20,10 C20,15.5228475 15.5228475,20 10,20 C4.4771525,20 0,15.5228475 0,10 C0,4.4771525 4.4771525,0 10,0 Z M9.97147155,4.21033757 L9.93653616,4.21041753 L9.89905141,4.21204415 L9.85748637,4.21567696 L9.8218136,4.22040132 L9.79540681,4.22485311 L9.76174074,4.23176788 L9.73757688,4.23758324 L9.70611452,4.24631786 L9.66938937,4.25801778 L9.63934998,4.26901324 L9.60823915,4.28170749 L9.58666424,4.29133502 C9.57493359,4.2967652 9.56329802,4.30246797 9.55177881,4.30849778 L9.5403788,4.31445184 C9.52149926,4.32459169 9.50291218,4.33547125 9.48466025,4.34709052 L9.46229694,4.36181335 L9.44224273,4.37587513 C9.42264549,4.39002923 9.40350031,4.40509028 9.3848531,4.42110411 L9.35742784,4.44557331 C9.34971063,4.45276116 9.34209123,4.46011365 9.33457412,4.46763076 L5.91643099,7.88577389 C5.57319675,8.22900813 5.57319675,8.78550079 5.91643099,9.12873503 L5.93406529,9.14589181 C6.27846812,9.47187067 6.82197541,9.46615174 7.15939213,9.12873503 L9.07707171,7.2109668 L9.07714844,14.9108887 C9.07714844,15.3962952 9.47064817,15.7897949 9.95605469,15.7897949 C10.4414612,15.7897949 10.8349609,15.3962952 10.8349609,14.9108887 L10.8348842,7.2109668 L12.7527172,9.12873503 C13.0959515,9.47196927 13.6524441,9.47196927 13.9956784,9.12873503 C14.3389126,8.78550079 14.3389126,8.22900813 13.9956784,7.88577389 L10.5775353,4.46763076 L10.5639291,4.45431052 L10.5410907,4.43319191 L10.5272443,4.42105827 C10.4953742,4.39374971 10.4620126,4.3690938 10.4274346,4.34717301 L10.4163286,4.34013902 L10.3862222,4.3224213 L10.3603423,4.30844334 C10.3458815,4.30094973 10.3312562,4.29388482 10.3165024,4.28727887 L10.291849,4.2766323 L10.271781,4.26861791 C10.2522345,4.26109154 10.2323511,4.25424353 10.2121449,4.2481603 L10.1971794,4.243702 L10.1648164,4.23522614 L10.1262716,4.22668508 L10.0900049,4.22035431 L10.0676504,4.21727622 L10.0299435,4.2132702 L10.0058562,4.21159393 L9.97147155,4.21033757 Z" id="形状结合"></path>
                        </g>
                        <text id="/" font-family="PingFangSC-Regular, PingFang SC" font-size="14" font-weight="normal" fill="#1F1F1F">
                            <tspan x="10" y="21">/</tspan>
                        </text>
                    </g>
                    <g id="Navigation/Dropdown/Light/Option">
                        <g id="矩形">
                            <use fill="black" fill-opacity="1" filter="url(#filter-2)" xlink:href="#path-1"></use>
                            <use fill="#FFFFFF" fill-rule="evenodd" xlink:href="#path-1"></use>
                        </g>
                        <g id="编组-4备份-9" transform="translate(12, 11)">
                            <rect id="矩形备份-13备份-2" fill="#BAE0FF" fill-rule="nonzero" x="20" y="1" width="180" height="14" rx="2"></rect>
                            <g id="icon/待办备份">
                                <rect id="Rectangle" x="0" y="0" width="16" height="16"></rect>
                                <mask id="mask-4" fill="white">
                                    <use xlink:href="#path-3"></use>
                                </mask>
                                <g id="蒙版"></g>
                                <path d="M6.78985874,5.04486476 C6.94207966,5.08992189 7.06113925,5.20898148 7.10619638,5.36120241 L7.44453442,6.50424305 C7.76000573,7.57003076 8.59372194,8.40356678 9.65957782,8.7188077 L10.7929752,9.05402494 C11.0411559,9.12742764 11.1828415,9.38812249 11.1094387,9.63630316 C11.0645893,9.78794285 10.9462869,9.90673597 10.7948341,9.95221269 L9.64657021,10.297002 C8.58800793,10.6148565 7.76068151,11.4444172 7.44568306,12.5038329 L7.10603297,13.646158 C7.0322724,13.8942326 6.77137349,14.035542 6.52329893,13.9617814 C6.37152416,13.9166539 6.25280307,13.7979328 6.20767553,13.646158 L5.86802544,12.5038329 C5.55302699,11.4444172 4.72570057,10.6148565 3.66713829,10.297002 L2.51887435,9.95221269 C2.27099963,9.87778334 2.13039438,9.61650426 2.20482373,9.36862954 C2.25030046,9.21717679 2.36909357,9.09887437 2.52073326,9.05402494 L3.65413068,8.7188077 C4.71998656,8.40356678 5.55370277,7.57003076 5.86917408,6.50424305 L6.20751212,5.36120241 C6.28096847,5.1130376 6.54169393,4.97140841 6.78985874,5.04486476 Z M11.3888837,2.04623593 C11.458075,2.06671644 11.512193,2.12083444 11.5326736,2.19002577 L11.6667717,2.64306269 C11.859115,3.292875 12.367433,3.80108312 13.0172869,3.99328597 L13.4650276,4.12571118 C13.577837,4.15907605 13.6422395,4.27757371 13.6088746,4.39038311 C13.5884885,4.45931024 13.5347147,4.51330711 13.4658725,4.53397835 L13.0093561,4.67105656 C12.3639491,4.86485293 11.859527,5.37063732 11.667472,6.01656459 L11.5325993,6.47017412 C11.4990717,6.58293528 11.3804813,6.64716683 11.2677202,6.6136393 C11.1987316,6.59312679 11.1447675,6.53916265 11.124255,6.47017412 L10.9893822,6.01656459 C10.7973272,5.37063732 10.2929051,4.86485293 9.64749814,4.67105656 L9.19098174,4.53397835 C9.07831141,4.50014683 9.01439993,4.38138361 9.04823146,4.26871328 C9.06890269,4.19987112 9.12289957,4.14609729 9.1918267,4.12571118 L9.63956739,3.99328597 C10.2894213,3.80108312 10.7977392,3.292875 10.9900826,2.64306269 L11.1241807,2.19002577 C11.1575699,2.07722358 11.2760815,2.01284668 11.3888837,2.04623593 Z" id="形状" fill="#1677FF" mask="url(#mask-4)"></path>
                            </g>
                        </g>
                        <g id="编组-4备份-14" transform="translate(12, 37)">
                            <rect id="矩形备份-13备份-2" fill="#BAE0FF" fill-rule="nonzero" x="20" y="1" width="103" height="14" rx="2"></rect>
                            <g id="icon/待办备份">
                                <rect id="Rectangle" x="0" y="0" width="16" height="16"></rect>
                                <mask id="mask-6" fill="white">
                                    <use xlink:href="#path-5"></use>
                                </mask>
                                <g id="蒙版"></g>
                                <path d="M6.78985874,5.04486476 C6.94207966,5.08992189 7.06113925,5.20898148 7.10619638,5.36120241 L7.44453442,6.50424305 C7.76000573,7.57003076 8.59372194,8.40356678 9.65957782,8.7188077 L10.7929752,9.05402494 C11.0411559,9.12742764 11.1828415,9.38812249 11.1094387,9.63630316 C11.0645893,9.78794285 10.9462869,9.90673597 10.7948341,9.95221269 L9.64657021,10.297002 C8.58800793,10.6148565 7.76068151,11.4444172 7.44568306,12.5038329 L7.10603297,13.646158 C7.0322724,13.8942326 6.77137349,14.035542 6.52329893,13.9617814 C6.37152416,13.9166539 6.25280307,13.7979328 6.20767553,13.646158 L5.86802544,12.5038329 C5.55302699,11.4444172 4.72570057,10.6148565 3.66713829,10.297002 L2.51887435,9.95221269 C2.27099963,9.87778334 2.13039438,9.61650426 2.20482373,9.36862954 C2.25030046,9.21717679 2.36909357,9.09887437 2.52073326,9.05402494 L3.65413068,8.7188077 C4.71998656,8.40356678 5.55370277,7.57003076 5.86917408,6.50424305 L6.20751212,5.36120241 C6.28096847,5.1130376 6.54169393,4.97140841 6.78985874,5.04486476 Z M11.3888837,2.04623593 C11.458075,2.06671644 11.512193,2.12083444 11.5326736,2.19002577 L11.6667717,2.64306269 C11.859115,3.292875 12.367433,3.80108312 13.0172869,3.99328597 L13.4650276,4.12571118 C13.577837,4.15907605 13.6422395,4.27757371 13.6088746,4.39038311 C13.5884885,4.45931024 13.5347147,4.51330711 13.4658725,4.53397835 L13.0093561,4.67105656 C12.3639491,4.86485293 11.859527,5.37063732 11.667472,6.01656459 L11.5325993,6.47017412 C11.4990717,6.58293528 11.3804813,6.64716683 11.2677202,6.6136393 C11.1987316,6.59312679 11.1447675,6.53916265 11.124255,6.47017412 L10.9893822,6.01656459 C10.7973272,5.37063732 10.2929051,4.86485293 9.64749814,4.67105656 L9.19098174,4.53397835 C9.07831141,4.50014683 9.01439993,4.38138361 9.04823146,4.26871328 C9.06890269,4.19987112 9.12289957,4.14609729 9.1918267,4.12571118 L9.63956739,3.99328597 C10.2894213,3.80108312 10.7977392,3.292875 10.9900826,2.64306269 L11.1241807,2.19002577 C11.1575699,2.07722358 11.2760815,2.01284668 11.3888837,2.04623593 Z" id="形状" fill="#1677FF" mask="url(#mask-6)"></path>
                            </g>
                        </g>
                    </g>
                </g>
            </g>
        </g>
    </g>
</svg>