<?xml version="1.0" encoding="UTF-8"?>
<svg width="300px" height="140px" viewBox="0 0 300 140" version="1.1" xmlns="http://www.w3.org/2000/svg" xmlns:xlink="http://www.w3.org/1999/xlink">
    <title>思维链</title>
    <g id="页面-1" stroke="none" stroke-width="1" fill="none" fill-rule="evenodd">
        <g id="Ant-Design-X---白" transform="translate(-468, -1322)">
            <g id="思维链" transform="translate(468, 1322)">
                <rect id="矩形" opacity="0" x="0" y="0" width="300" height="140"></rect>
                <g id="编组-13" transform="translate(42, 58)">
                    <rect id="Divider" fill-opacity="0.15" fill="#000000" x="126" y="12" width="60" height="2"></rect>
                    <g id="Icon/Steps-Normal" transform="translate(192, 0)" fill="#D9D9D9">
                        <circle id="椭圆形" cx="12" cy="12" r="12"></circle>
                    </g>
                    <rect id="Divider" fill="#1677FF" x="126" y="12" width="32" height="2"></rect>
                    <g id="Icon/Steps-Active" transform="translate(96, 0)">
                        <circle id="Active" fill="#1677FF" cx="12" cy="12" r="12"></circle>
                        <g id="check-outlined" transform="translate(6, 6)" fill="#FFFFFF" fill-rule="nonzero">
                            <rect id="矩形" opacity="0" x="0" y="0" width="12" height="12"></rect>
                            <path d="M10.6875,2.2265625 L9.86835937,2.2265625 C9.75351563,2.2265625 9.64453125,2.27929688 9.57421875,2.36953125 L4.74257812,8.49023438 L2.42578125,5.5546875 C2.35429688,5.46445313 2.24648437,5.41171875 2.13164062,5.41171875 L1.3125,5.41171875 C1.23398437,5.41171875 1.190625,5.50195312 1.23867187,5.56289062 L4.4484375,9.62929687 C4.5984375,9.81914062 4.88671875,9.81914062 5.03789062,9.62929687 L10.7613281,2.3765625 C10.809375,2.31679688 10.7660156,2.2265625 10.6875,2.2265625 Z" id="路径"></path>
                        </g>
                    </g>
                    <g id="导航/Steps步骤条/Light/水平分割线" transform="translate(30, 12)" fill="#1677FF">
                        <rect id="Divider" x="0" y="0" width="60" height="2"></rect>
                    </g>
                    <g id="Icon/Steps-Finished">
                        <circle id="椭圆形" fill="#1677FF" cx="12" cy="12" r="12"></circle>
                        <g id="check-outlined" transform="translate(6, 6)" fill="#FFFFFF" fill-rule="nonzero">
                            <rect id="矩形" opacity="0" x="0" y="0" width="12" height="12"></rect>
                            <path d="M10.6875,2.2265625 L9.86835937,2.2265625 C9.75351563,2.2265625 9.64453125,2.27929688 9.57421875,2.36953125 L4.74257812,8.49023438 L2.42578125,5.5546875 C2.35429688,5.46445313 2.24648437,5.41171875 2.13164062,5.41171875 L1.3125,5.41171875 C1.23398437,5.41171875 1.190625,5.50195312 1.23867187,5.56289062 L4.4484375,9.62929687 C4.5984375,9.81914062 4.88671875,9.81914062 5.03789062,9.62929687 L10.7613281,2.3765625 C10.809375,2.31679688 10.7660156,2.2265625 10.6875,2.2265625 Z" id="路径"></path>
                        </g>
                    </g>
                </g>
            </g>
        </g>
    </g>
</svg>