<?xml version="1.0" encoding="UTF-8"?>
<svg width="300px" height="140px" viewBox="0 0 300 140" version="1.1" xmlns="http://www.w3.org/2000/svg" xmlns:xlink="http://www.w3.org/1999/xlink">
    <title>数据管理-浅色</title>
    <g id="页面-1" stroke="none" stroke-width="1" fill="none" fill-rule="evenodd">
        <g id="Ant-Design-X---白" transform="translate(-468, -1956)">
            <g id="数据管理-浅色" transform="translate(468, 1956)">
                <rect id="矩形" opacity="0" x="0" y="0" width="300" height="140"></rect>
                <path d="M29,35.5 L263,35.5 C267.418278,35.5 271,39.081722 271,43.5 L271,96.5 C271,100.918278 267.418278,104.5 263,104.5 L37,104.5 C32.581722,104.5 29,100.918278 29,96.5 L29,35.5 L29,35.5 Z" id="矩形" fill="#FAFAFA" fill-rule="nonzero"></path>
                <rect id="矩形" fill="#E6E6E6" fill-rule="nonzero" x="96.5" y="48.5" width="151" height="10" rx="2"></rect>
                <rect id="矩形备份-13" fill="#E6E6E6" fill-rule="nonzero" x="96.5" y="64.5" width="110.733333" height="10" rx="2"></rect>
                <g id="setting-filled" transform="translate(48, 54)">
                    <rect id="矩形" fill="#000000" opacity="0" x="0" y="0" width="32" height="32"></rect>
                    <path d="M16.015625,12.20625 C15.08125,12.20625 14.20625,12.56875 13.54375,13.23125 C12.884375,13.89375 12.51875,14.76875 12.51875,15.703125 C12.51875,16.6375 12.884375,17.5125 13.54375,18.175 C14.20625,18.834375 15.08125,19.2 16.015625,19.2 C16.95,19.2 17.825,18.834375 18.4875,18.175 C19.146875,17.5125 19.5125,16.6375 19.5125,15.703125 C19.5125,14.76875 19.146875,13.89375 18.4875,13.23125 C17.825,12.56875 16.95,12.20625 16.015625,12.20625 Z M28.9,19.565625 L26.85625,17.81875 C26.953125,17.225 27.003125,16.61875 27.003125,16.015625 C27.003125,15.4125 26.953125,14.803125 26.85625,14.2125 L28.9,12.465625 C29.215625,12.196875 29.33125,11.759375 29.190625,11.365625 L29.1625,11.284375 C28.596875,9.709375 27.7625,8.259375 26.675,6.98125 L26.61875,6.915625 C26.35,6.6 25.915625,6.48125 25.521875,6.61875 L22.984375,7.521875 C22.046875,6.753125 21.003125,6.146875 19.871875,5.725 L19.38125,3.071875 C19.30625,2.6625 18.984375,2.34375 18.575,2.26875 L18.490625,2.253125 C16.865625,1.959375 15.153125,1.959375 13.528125,2.253125 L13.44375,2.26875 C13.034375,2.34375 12.7125,2.6625 12.6375,3.071875 L12.14375,5.7375 C11.021875,6.1625 9.984375,6.765625 9.053125,7.528125 L6.496875,6.61875 C6.10625,6.48125 5.66875,6.596875 5.4,6.915625 L5.34375,6.98125 C4.25625,8.265625 3.421875,9.7125 2.85625,11.284375 L2.828125,11.365625 C2.6875,11.75625 2.803125,12.19375 3.11875,12.465625 L5.1875,14.23125 C5.090625,14.81875 5.04375,15.41875 5.04375,16.0125 C5.04375,16.6125 5.090625,17.2125 5.1875,17.79375 L3.125,19.559375 C2.809375,19.828125 2.69375,20.265625 2.834375,20.659375 L2.8625,20.740625 C3.428125,22.3125 4.2625,23.765625 5.35,25.04375 L5.40625,25.109375 C5.675,25.425 6.109375,25.54375 6.503125,25.40625 L9.059375,24.496875 C9.990625,25.2625 11.028125,25.86875 12.15,26.2875 L12.64375,28.953125 C12.71875,29.3625 13.040625,29.68125 13.45,29.75625 L13.534375,29.771875 C14.35,29.91875 15.18125,29.99375 16.015625,29.99375 C16.85,29.99375 17.684375,29.91875 18.496875,29.771875 L18.58125,29.75625 C18.990625,29.68125 19.3125,29.3625 19.3875,28.953125 L19.878125,26.3 C21.009375,25.875 22.053125,25.271875 22.990625,24.503125 L25.528125,25.40625 C25.91875,25.54375 26.35625,25.428125 26.625,25.109375 L26.68125,25.04375 C27.76875,23.759375 28.603125,22.3125 29.16875,20.740625 L29.196875,20.659375 C29.33125,20.271875 29.215625,19.8375 28.9,19.565625 Z M16.015625,21.196875 C12.98125,21.196875 10.521875,18.7375 10.521875,15.703125 C10.521875,12.66875 12.98125,10.209375 16.015625,10.209375 C19.05,10.209375 21.509375,12.66875 21.509375,15.703125 C21.509375,18.7375 19.05,21.196875 16.015625,21.196875 Z" id="形状" fill="#1677FF"></path>
                </g>
                <rect id="矩形备份-13备份-5" fill="#E6E6E6" fill-rule="nonzero" x="96.5" y="82.5" width="88" height="10" rx="2"></rect>
            </g>
        </g>
    </g>
</svg>