<?xml version="1.0" encoding="UTF-8"?>
<svg width="300px" height="140px" viewBox="0 0 300 140" version="1.1" xmlns="http://www.w3.org/2000/svg" xmlns:xlink="http://www.w3.org/1999/xlink">
    <title>请求-浅色</title>
    <defs>
        <linearGradient x1="50%" y1="3.46944695e-15%" x2="50%" y2="100%" id="linearGradient-1">
            <stop stop-color="#28CAFF" offset="0%"></stop>
            <stop stop-color="#0C69FF" offset="100%"></stop>
        </linearGradient>
        <path d="M0.533065954,0.533065658 C1.24382016,-0.177688553 2.39618043,-0.177688553 3.10693463,0.533065658 L12.570364,9.99649499 C13.3862963,10.8124272 13.3910494,12.1338415 12.5810082,12.9556225 L3.11615962,22.5576428 C2.410537,23.2734918 1.25820656,23.281782 0.542357538,22.5761593 C-0.173491488,21.8705367 -0.181781635,20.7182063 0.523840976,20.0023572 L8.32988731,12.0831779 C8.65390332,11.754466 8.65200249,11.2259012 8.32563066,10.8995282 L0.533065954,3.10693434 L0.533065954,3.10693434 C-0.166406444,2.40746195 -0.177509181,1.28029147 0.499757744,0.567241357 L0.533065954,0.533065658 Z M20.2008845,22.5985162 C20.8959082,23.3246603 22.0479922,23.3498884 22.7741363,22.6548648 C23.5002804,21.9598411 23.5255086,20.807757 22.8304849,20.081613 L16.4753102,13.4418781 C15.7802865,12.7157341 14.6282024,12.6905059 13.9020584,13.3855295 C13.1759142,14.0805532 13.1506861,15.2326373 13.8457098,15.9587814 L20.2008845,22.5985162 Z" id="path-2"></path>
        <linearGradient x1="78.7419134%" y1="17.4142421%" x2="32.0402978%" y2="82.7990302%" id="linearGradient-4">
            <stop stop-color="#024FC9" offset="0%"></stop>
            <stop stop-color="#1383FF" stop-opacity="0" offset="100%"></stop>
        </linearGradient>
        <linearGradient x1="91.6985317%" y1="5.50976285%" x2="11.9808828%" y2="89.8742954%" id="linearGradient-5">
            <stop stop-color="#FF8F95" offset="0%"></stop>
            <stop stop-color="#FF4759" offset="100%"></stop>
        </linearGradient>
    </defs>
    <g id="页面-1" stroke="none" stroke-width="1" fill="none" fill-rule="evenodd">
        <g id="Ant-Design-X---白" transform="translate(-1216, -1956)">
            <g id="请求-浅色" transform="translate(1216, 1956)">
                <rect id="矩形" opacity="0" x="0" y="0" width="300" height="140"></rect>
                <g id="编组-16" transform="translate(56, 37)">
                    <path d="M33,0 C51.2253967,-3.34795107e-15 66,14.7746033 66,33 C66,51.2253967 51.2253967,66 33,66 C14.7746033,66 1.11598369e-15,51.2253967 0,33 C-2.23196738e-15,14.7746033 14.7746033,2.23196738e-15 33,0 Z" id="矩形" fill="#FAFAFA" fill-rule="nonzero"></path>
                    <g id="logo" transform="translate(19, 19)">
                        <path d="M3.15,0 L24.85,0 C26.589697,0 28,1.41030304 28,3.15 L28,24.85 C28,26.589697 26.589697,28 24.85,28 L3.15,28 C1.41030304,28 0,26.589697 0,24.85 L0,3.15 C0,1.41030304 1.41030304,0 3.15,0 L3.15,0 Z" id="矩形备份-3"></path>
                        <g id="路径-2" transform="translate(2.24, 2.38)">
                            <g id="蒙版" fill="url(#linearGradient-1)" fill-rule="nonzero">
                                <path d="M0.533065954,0.533065658 C1.24382016,-0.177688553 2.39618043,-0.177688553 3.10693463,0.533065658 L12.570364,9.99649499 C13.3862963,10.8124272 13.3910494,12.1338415 12.5810082,12.9556225 L3.11615962,22.5576428 C2.410537,23.2734918 1.25820656,23.281782 0.542357538,22.5761593 C-0.173491488,21.8705367 -0.181781635,20.7182063 0.523840976,20.0023572 L8.32988731,12.0831779 C8.65390332,11.754466 8.65200249,11.2259012 8.32563066,10.8995282 L0.533065954,3.10693434 L0.533065954,3.10693434 C-0.166406444,2.40746195 -0.177509181,1.28029147 0.499757744,0.567241357 L0.533065954,0.533065658 Z M20.2008845,22.5985162 C20.8959082,23.3246603 22.0479922,23.3498884 22.7741363,22.6548648 C23.5002804,21.9598411 23.5255086,20.807757 22.8304849,20.081613 L16.4753102,13.4418781 C15.7802865,12.7157341 14.6282024,12.6905059 13.9020584,13.3855295 C13.1759142,14.0805532 13.1506861,15.2326373 13.8457098,15.9587814 L20.2008845,22.5985162 Z" id="path-2"></path>
                            </g>
                            <g id="Clipped">
                                <mask id="mask-3" fill="white">
                                    <use xlink:href="#path-2"></use>
                                </mask>
                                <g id="path-2"></g>
                                <path d="M8.5400003,11.095 C9.91666699,12.8216666 10.3600003,14.3733334 9.87000026,15.75 C8.89000026,16.8933334 7.58333362,18.2116666 5.9500003,19.705 L3.5350003,16.94 L8.5400003,11.095 Z" id="路径" fill="url(#linearGradient-4)" fill-rule="nonzero" mask="url(#mask-3)"></path>
                            </g>
                        </g>
                        <path d="M22.4408842,2.94187812 C23.1359078,2.21573403 24.2879919,2.19050591 25.014136,2.88552954 C25.7402801,3.58055317 25.7655082,4.73263725 25.0704846,5.45878134 L18.7153098,12.0985161 C18.0202862,12.8246603 16.8682021,12.8498884 16.142058,12.1548647 C15.415914,11.4598411 15.3906858,10.307757 16.0857095,9.58161295 L22.4408842,2.94187812 Z" id="路径-2备份-5" fill="url(#linearGradient-5)" fill-rule="nonzero"></path>
                    </g>
                    <g id="编组-15" transform="translate(122, 0)">
                        <path d="M33,0 C51.2253967,-3.34795107e-15 66,14.7746033 66,33 C66,51.2253967 51.2253967,66 33,66 C14.7746033,66 1.11598369e-15,51.2253967 0,33 C-2.23196738e-15,14.7746033 14.7746033,2.23196738e-15 33,0 Z" id="矩形备份-5" fill="#FAFAFA" fill-rule="nonzero"></path>
                        <g id="api-filled" transform="translate(17, 17)">
                            <rect id="矩形" fill="#000000" opacity="0" x="0" y="0" width="32" height="32"></rect>
                            <path d="M28.678125,4.65 L27.353125,3.325 C27.303125,3.275 27.240625,3.253125 27.175,3.253125 C27.109375,3.253125 27.046875,3.278125 26.996875,3.325 L24.61875,5.703125 C23.565625,4.9875 22.340625,4.63125 21.115625,4.63125 C19.515625,4.63125 17.915625,5.240625 16.69375,6.4625 L13.509375,9.646875 C13.4125,9.74375 13.4125,9.903125 13.509375,10 L22,18.490625 C22.05,18.540625 22.1125,18.5625 22.178125,18.5625 C22.240625,18.5625 22.30625,18.5375 22.35625,18.490625 L25.540625,15.30625 C27.69375,13.15 27.946875,9.815625 26.3,7.384375 L28.678125,5.00625 C28.775,4.90625 28.775,4.746875 28.678125,4.65 Z M18.090625,17.084375 C17.99375,16.9875 17.834375,16.9875 17.7375,17.084375 L15.65625,19.165625 L12.834375,16.34375 L14.91875,14.259375 C15.015625,14.1625 15.015625,14.003125 14.91875,13.90625 L13.78125,12.76875 C13.684375,12.671875 13.525,12.671875 13.428125,12.76875 L11.34375,14.853125 L10,13.509375 C9.95,13.459375 9.8875,13.4375 9.821875,13.4375 C9.759375,13.4375 9.69375,13.4625 9.64375,13.509375 L6.4625,16.69375 C4.309375,18.846875 4.05625,22.184375 5.703125,24.615625 L3.325,26.99375 C3.228125,27.090625 3.228125,27.25 3.325,27.346875 L4.65,28.671875 C4.7,28.721875 4.7625,28.74375 4.828125,28.74375 C4.89375,28.74375 4.95625,28.71875 5.00625,28.671875 L7.384375,26.29375 C8.4375,27.009375 9.6625,27.365625 10.8875,27.365625 C12.4875,27.365625 14.0875,26.75625 15.309375,25.534375 L18.49375,22.35 C18.590625,22.253125 18.590625,22.09375 18.49375,21.996875 L17.15,20.653125 L19.234375,18.56875 C19.33125,18.471875 19.33125,18.3125 19.234375,18.215625 L18.090625,17.084375 L18.090625,17.084375 Z" id="形状" fill="#1677FF"></path>
                        </g>
                    </g>
                    <path d="M93.3498047,20.7 C87.3197043,20.7 81.824913,23.3559571 77.6163171,27.1527767 L80.0821304,29.9964553 C83.6355176,26.8027668 88.2667898,24.8553072 93.3498047,24.8553072 C98.4400863,24.8553072 103.079836,26.8100335 106.636857,30.0121997 L109.105092,27.1721544 C104.892863,23.3632237 99.3908051,20.7 93.3498047,20.7 Z M82.7635207,33.0896219 L85.3722447,36.0992221 C87.520748,34.2050512 90.3038713,33.0557109 93.3498047,33.0557109 C96.4017937,33.0557109 99.1873392,34.2086845 101.338265,36.108911 L103.950622,33.1041552 C101.106943,30.560831 97.4070123,28.9004037 93.3498047,28.9004037 C89.2998638,28.9004037 85.6047771,30.5559866 82.7635207,33.0896219 L82.7635207,33.0896219 Z M87.9821797,39.1088224 L93.3498047,45.3 L98.7246964,39.1148779 C97.2689461,37.8577491 95.3965751,36.9869634 93.3498047,36.9869634 C91.3066677,36.9869634 89.4355078,37.856538 87.9821797,39.1088224 L87.9821797,39.1088224 Z" id="形状" fill="#BAE0FF" fill-rule="nonzero" transform="translate(93.3607, 33) rotate(-270) translate(-93.3607, -33)"></path>
                </g>
            </g>
        </g>
    </g>
</svg>